PathFileType	4	(X/Y/Z)	/Users/visionmauri/1_8_1_f_Sports2D/1_8_1_f_Sports2D_px_person00.trc
DataRate	CameraRate	NumFrames	NumMarkers	Units	OrigDataRate	OrigDataStartFrame	OrigNumFrames
30.0	30.0	8	22	m	30.0	134	358
Frame#	Time	Hip			RHip			RKnee			RAnkle			RBigToe			RSmallToe			RHeel			LHip			LKnee			LAnkle			LBigToe			LSmallToe			LHeel			Neck			Head			Nose			RShoulder			RElbow			RWrist			LShoulder			LElbow			LWrist			
		X1	Y1	Z1	X2	Y2	Z2	X3	Y3	Z3	X4	Y4	Z4	X5	Y5	Z5	X6	Y6	Z6	X7	Y7	Z7	X8	Y8	Z8	X9	Y9	Z9	X10	Y10	Z10	X11	Y11	Z11	X12	Y12	Z12	X13	Y13	Z13	X14	Y14	Z14	X15	Y15	Z15	X16	Y16	Z16	X17	Y17	Z17	X18	Y18	Z18	X19	Y19	Z19	X20	Y20	Z20	X21	Y21	Z21	X22	Y22	Z22
134	4.4791783380018675	547.2814853939817	852.257098493749	0.0	597.2116970631132	854.9803307631997	0.0	596.0418925520922	1043.513167496047	0.0	604.0791991557142	1220.2838015636114	0.0	596.1461986276493	1283.775958451154	0.0	629.6473729791304	1283.3009993021453	0.0	600.2503261062487	1254.4948131600588	0.0	498.6171668097627	857.3742458213081	0.0	503.9827893149916	1051.1817649198917	0.0	509.24988780672146	1243.4778592975003	0.0	512.3615035009337	1280.9390275359008	0.0	484.44032339136936	1287.17335593216	0.0	512.5483636796756	1282.5192789260268	0.0	526.2381014060138	584.4484667339323	0.0	475.2436186521879	476.7223058949515	0.0	468.1567707643429	552.5118881433193	0.0	620.7489052710337	609.5353289284826	0.0	693.2472518822256	725.9087628102634	0.0	679.1989606854171	819.1009123482902	0.0	451.0644669064036	619.7571517178449	0.0	415.4043810271576	759.4954394256241	0.0	415.70933530206304	766.2832307500258	0.0
135	4.512605042016807	549.7278554051301	851.7420037687131	0.0	599.9330012658797	854.7915851578912	0.0	592.5217299178687	1043.403793947037	0.0	606.8409769630882	1226.571758777244	0.0	594.1062462326074	1271.534395281212	0.0	627.0380964708615	1274.7325269107332	0.0	605.7231410754137	1259.9676435745366	0.0	500.7916672065396	856.8012316813462	0.0	503.95158392883286	1048.2913573357782	0.0	509.1444538670736	1242.711036504845	0.0	508.2177899570737	1279.9659744418327	0.0	483.1602326813727	1288.835855344172	0.0	512.5326134530164	1280.2753965205145	0.0	526.6334737438655	586.4782589657747	0.0	470.322510810316	478.01047231384376	0.0	465.0336952307075	554.993644297636	0.0	620.5625739056067	609.8484605459857	0.0	693.8143092855373	722.5026318216611	0.0	674.2287745170579	812.6736257883243	0.0	453.7139419564404	619.5122579135166	0.0	419.6570644985237	758.6328045990305	0.0	417.39435602662985	773.3541070416079	0.0
136	4.546031746031746	551.8852406723202	851.6557249566574	0.0	602.1850973696417	854.6310945786493	0.0	588.7855161669521	1044.8796509003544	0.0	608.8976860816949	1230.2940020953629	0.0	587.4407723737934	1263.5970325688113	0.0	620.3037429124778	1267.7305202049638	0.0	610.1993549626425	1262.0621916020718	0.0	502.9462055461498	856.1174305986834	0.0	504.6304854641724	1045.150874170844	0.0	509.5066481649402	1239.554364816877	0.0	503.73057224024836	1277.0481047137357	0.0	482.76845752944627	1289.5136268224628	0.0	513.7640836320752	1276.137184080979	0.0	527.9431339299776	589.1195103836282	0.0	467.5740756565584	480.28285834805337	0.0	463.35164170935974	557.0001640532114	0.0	620.0611370806937	610.5402734500583	0.0	694.450637454651	720.1934004893421	0.0	667.4797259602708	807.9869453809946	0.0	457.08863642869017	619.1551015329767	0.0	424.5546634628634	758.0652847421173	0.0	421.40937380783566	774.9071897025992	0.0
137	4.579458450046685	554.114248429874	851.0328748833034	0.0	603.824939198962	854.2518767953609	0.0	586.1579685084783	1046.969574001929	0.0	609.7947542468469	1231.886905917418	0.0	579.642220628158	1258.4284442195774	0.0	613.0164497554448	1260.9263322534866	0.0	613.1053301933987	1261.4753673017153	0.0	505.99744824432344	855.0916284962415	0.0	506.5298206559139	1043.5002569901656	0.0	510.23421459172687	1234.4497105032606	0.0	501.85821723332236	1271.2146750780353	0.0	483.67256399899145	1285.4141892275425	0.0	515.1618820535357	1269.6146282601119	0.0	529.6798211023695	590.891846775428	0.0	467.29610201961185	482.6743842004705	0.0	462.92365967524603	558.8020845181618	0.0	619.7199892423374	611.4275766984827	0.0	694.8281767796396	719.73242701673	0.0	659.7863101420122	805.8965728541392	0.0	460.8617916052674	619.0935995631926	0.0	430.19045824312343	758.1061002005252	0.0	427.64662884223986	772.5329526857965	0.0
138	4.612885154061624	556.1425822963895	850.1081590637976	0.0	604.8316883700305	854.1169331288171	0.0	585.5672246068815	1048.6303476296307	0.0	609.2023283505802	1232.6255747881576	0.0	574.6234224653041	1254.8993031953441	0.0	607.8411079952153	1256.1830120102645	0.0	613.9194747604996	1261.099445108466	0.0	509.0883956067662	854.480573987199	0.0	508.737275416865	1042.2646193570556	0.0	511.0954896603106	1229.688958504605	0.0	502.4465035673705	1264.0907944481842	0.0	484.5001303350646	1277.2544471453116	0.0	516.1616267859866	1263.2002665889472	0.0	531.7264936491201	591.7704457361594	0.0	467.85376458948264	484.2272724679522	0.0	463.6093165136981	561.0314355498042	0.0	620.7910816555321	612.9559795986133	0.0	694.4453587032161	721.7361994417196	0.0	651.9966125168503	805.2473177552055	0.0	464.75057804736736	619.6284908449178	0.0	435.6713367460369	758.3230863902273	0.0	434.75432739164626	771.3925918893384	0.0
139	4.646311858076563	557.8002384666868	849.7623721314354	0.0	605.5092044076022	854.7823018466845	0.0	586.7285602619281	1049.4423004309315	0.0	608.1605007637557	1233.467514424139	0.0	573.6879009489223	1252.5644492376548	0.0	605.0453764196814	1254.7399913241495	0.0	613.3849884308655	1262.6947423949425	0.0	510.99219164064306	854.5551894549292	0.0	510.0107857238322	1039.1175353013557	0.0	511.72813880058976	1226.7646965829501	0.0	503.4822688516805	1257.188427551429	0.0	484.7994127855119	1268.6795635236188	0.0	516.7904419128636	1259.1304925914887	0.0	534.0811585580894	592.4099813163368	0.0	467.89972692925863	484.78421799111317	0.0	465.1571637014197	563.6219530466421	0.0	623.41986413049	615.1888500748076	0.0	693.1437061792609	725.7658239089923	0.0	644.225111538472	804.1090314832243	0.0	469.25636308951096	620.5150892938982	0.0	440.84713004773437	758.1207041846403	0.0	441.6363274139402	772.349742773435	0.0
140	4.6797385620915035	559.9322308114315	849.7278420007532	0.0	606.8436096889455	855.725212742159	0.0	588.3703402513416	1049.7434513932144	0.0	607.9049761524232	1234.4346723369918	0.0	573.900569480509	1251.578685490475	0.0	602.310646576968	1255.424682833924	0.0	612.8437691707699	1264.5586037435658	0.0	512.7314917289784	854.0284980437916	0.0	510.6088208873611	1033.9995172902666	0.0	512.0339900681275	1224.6145384591362	0.0	503.7290520000043	1251.9984929270217	0.0	484.8991473227623	1258.2920601652017	0.0	517.109560889841	1256.383585464827	0.0	536.5562097783078	593.0586700925156	0.0	468.4042501712199	484.9253804894842	0.0	467.2071472860992	565.3774053906175	0.0	626.4996239088443	617.2318374545351	0.0	690.5613139298544	730.7663222672977	0.0	636.4072656787562	801.9980108454956	0.0	474.89613783985715	621.2090329779056	0.0	447.58638224898056	757.2704582042545	0.0	448.5350754824326	771.9173379095278	0.0
141	4.713165266106443	563.2015765514778	848.7120679043219	0.0	609.3795774842989	855.3493348205975	0.0	589.6777110121409	1049.9345107383679	0.0	608.0976419123242	1234.8927075702168	0.0	570.7622056209096	1252.333597459014	0.0	595.5365807555328	1257.0664686678842	0.0	612.6792466510854	1264.6789223967855	0.0	515.9728106582311	851.7927598196524	0.0	511.49404273964205	1030.2438244022428	0.0	512.6422581942794	1222.2452944272468	0.0	503.1369146850128	1250.3508584148226	0.0	485.1721552257581	1245.577028481466	0.0	517.6279291888087	1253.6981326949979	0.0	539.2666969729933	593.555032883071	0.0	470.69784867825473	485.03269027032223	0.0	469.448193485257	565.7268954303729	0.0	629.1045610763232	618.5128501443227	0.0	685.8245643209208	736.5961565369538	0.0	627.9091638287271	799.8830430675396	0.0	481.3141649654741	621.3011012964716	0.0	457.39360386544644	755.5068559643898	0.0	456.01195731293177	768.4135708032147	0.0
